Patient4_TMGait_0pt8_01_left_42_GRF.mot
version=1
nRows=78
nColumns=19
inDegrees=no
endheader
time	F1x	F1y	F1z	M1x	M1y	M1z	F2x	F2y	F2z	M2x	M2y	M2z	EC1x	EC1y	EC1z	EC2x	EC2y	EC2z
46.55	13.5808	5.8122	-4.6431	0.40216	6.129	10.1813	-31.9444	726.2934	-62.148	284.4258	82.2869	825.5498	-0.0592	0.0182	-0.0073	-0.0462	0.0165	0.9585
46.5615	8.982	4.506	-3.1629	0.084935	4.0105	7.5085	-29.528	725.1867	-61.8134	283.9479	80.8715	820.2546	-0.0592	0.0182	-0.0073	-0.0462	0.0165	0.9585
46.573	5.114	3.414	-1.8615	-0.19871	2.2109	5.3039	-27.0057	725.0731	-61.0833	283.8949	78.9172	815.4079	-0.0592	0.0182	-0.0073	-0.0462	0.0165	0.9585
46.5845	2.1853	2.6158	-0.84714	-0.43248	0.84277	3.7017	-24.3957	726.0933	-60.0528	284.3496	76.5361	811.2852	-0.0592	0.0182	-0.0073	-0.0462	0.0165	0.9585
46.596	0.16735	2.1169	-0.13031	-0.61614	-0.10675	2.693	-21.6696	728.1521	-58.8314	285.2906	73.8502	807.889	-0.0592	0.0182	-0.0073	-0.0462	0.0165	0.9585
46.6075	-1.0763	1.8761	0.32281	-0.75674	-0.70029	2.1795	-18.7503	731.0045	-57.5228	286.6278	70.9616	805.0307	-0.0592	0.0182	-0.0073	-0.0462	0.0165	0.9585
46.619	-1.7548	1.8188	0.57573	-0.86012	-1.0361	2.0046	-15.5634	734.3683	-56.1819	288.2476	67.9154	802.4655	-0.0592	0.0182	-0.0073	-0.0462	0.0165	0.9585
46.6305	-2.0631	1.8642	0.69475	-0.92707	-1.2088	2.0169	-11.9996	737.9598	-54.869	290.0279	64.7442	799.9159	-0.0592	0.0182	-0.0073	-0.0462	0.0165	0.9585
46.642	-2.1674	1.9106	0.73017	-0.94795	-1.2905	2.0804	-7.9813	741.5653	-53.6568	291.8652	61.4902	797.1761	-0.0592	0.0182	-0.0073	-0.0462	0.0165	0.9585
46.6535	-2.2012	1.8683	0.72854	-0.9126	-1.3441	2.0482	-3.4453	745.083	-52.6516	293.6894	58.2363	794.1651	-0.0592	0.0182	-0.0073	-0.0462	0.0165	0.9585
46.665	-2.2465	1.6556	0.71	-0.80594	-1.3994	1.8098	1.592	748.5058	-51.9667	295.4633	55.0919	790.9143	-0.0592	0.0182	-0.0073	-0.0462	0.0165	0.9585
46.6765	-2.3427	1.1961	0.70125	-0.60875	-1.4829	1.2554	7.0584	751.8922	-51.7211	297.1736	52.1908	787.5295	-0.0592	0.0182	-0.0073	-0.0462	0.0165	0.9585
46.688	-2.5074	0.4397	0.70024	-0.30619	-1.5891	0.30684	12.7714	755.2504	-52.0022	298.7938	49.6787	784.0853	-0.0592	0.0182	-0.0073	-0.0462	0.0165	0.9585
46.6995	-2.6841	-0.66163	0.71093	0.11789	-1.6981	-1.0933	18.4614	758.487	-52.838	300.2625	47.6907	780.5847	-0.0592	0.0182	-0.0073	-0.0462	0.0165	0.9585
46.711	-2.7924	-2.094	0.71289	0.6574	-1.7546	-2.9261	23.8083	761.3453	-54.1898	301.4615	46.3201	776.8897	-0.0592	0.0182	-0.0073	-0.0462	0.0165	0.9585
46.7225	-2.6831	-3.7649	0.68944	1.2768	-1.6835	-5.0766	28.4756	763.4223	-55.9707	302.2237	45.6147	772.7308	-0.0592	0.0182	-0.0073	-0.0462	0.0165	0.9585
46.734	-2.1509	-5.4114	0.60073	1.8834	-1.3635	-7.2067	32.1735	764.2687	-58.067	302.3698	45.5823	767.7899	-0.0592	0.0182	-0.0073	-0.0462	0.0165	0.9585
46.7455	-0.94695	-6.6011	0.41893	2.3185	-0.66312	-8.7733	34.7013	763.5161	-60.3425	301.7674	46.1736	761.8059	-0.0592	0.0182	-0.0073	-0.0462	0.0165	0.9585
46.757	1.2007	-6.6371	0.095463	2.3267	0.5761	-8.8896	36.042	761.0139	-62.6483	300.3778	47.2681	754.6912	-0.0592	0.0182	-0.0073	-0.0462	0.0165	0.9585
46.7685	4.5622	-4.5569	-0.40191	1.5521	2.4897	-6.3336	36.3322	756.7996	-64.833	298.2503	48.6814	746.4761	-0.0592	0.0182	-0.0073	-0.0462	0.0165	0.9585
46.78	9.2792	0.89183	-1.0914	-0.4693	5.149	0.48907	35.9092	751.1307	-66.7501	295.5274	50.1628	737.3452	-0.0592	0.0182	-0.0073	-0.0462	0.0165	0.9585
46.7915	15.2922	11.1731	-1.9471	-4.2775	8.4939	13.4373	35.229	744.4391	-68.2385	292.4243	51.3967	727.6097	-0.0592	0.0182	-0.0073	-0.0462	0.0165	0.9585
46.803	22.1334	27.7659	-2.9015	-10.4127	12.2569	34.397	34.7785	737.1669	-69.1646	289.1534	52.0761	717.5623	-0.0592	0.0182	-0.0073	-0.0462	0.0165	0.9585
46.8145	28.723	51.7688	-3.7909	-19.2708	15.8252	64.7732	34.9987	729.5112	-69.4183	285.8211	51.923	707.2538	-0.0592	0.0182	-0.0073	-0.0462	0.0165	0.9585
46.826	33.1465	83.2912	-4.3341	-30.8849	18.1229	104.7403	36.2042	721.227	-68.9224	282.3484	50.7278	696.3446	-0.0592	0.0182	-0.0073	-0.0462	0.0165	0.9585
46.8375	32.9885	121.2365	-4.0707	-44.8432	17.7185	152.974	38.5401	711.5803	-67.6292	278.4505	48.3736	684.0804	-0.0592	0.0182	-0.0073	-0.0462	0.0165	0.9585
46.849	27.2458	164.6277	-2.6907	-60.764	13.8851	208.3706	41.9543	699.4377	-65.5268	273.6731	44.8518	669.3683	-0.0592	0.0182	-0.0073	-0.0462	0.0165	0.9585
46.8605	17.218	213.3109	-0.24185	-78.5423	7.0953	270.7571	46.225	683.4949	-62.6285	267.4829	40.2519	651.0139	-0.0592	0.0182	-0.0073	-0.0462	0.0165	0.9585
46.872	4.7099	265.7331	3.377	-97.5541	-2.1421	338.0004	50.9594	662.3897	-58.955	259.3187	34.7397	627.8254	-0.0592	0.0182	-0.0073	-0.0462	0.0165	0.9585
46.8835	-8.677	317.7556	8.5214	-116.2782	-13.5856	404.5719	55.6647	634.7848	-54.5163	248.6359	28.5331	598.6747	-0.0592	0.0182	-0.0073	-0.0462	0.0165	0.9585
46.895	-21.3886	365.3246	14.7431	-133.292	-26.0384	465.0639	59.7378	599.6734	-49.309	235.0236	21.8917	562.7627	-0.0592	0.0182	-0.0073	-0.0462	0.0165	0.9585
46.9065	-32.3643	406.8689	21.1507	-148.0872	-37.9903	517.2918	62.5384	556.7142	-43.4146	218.3232	15.1732	519.9175	-0.0592	0.0182	-0.0073	-0.0462	0.0165	0.9585
46.918	-41.3853	443.1034	27.0527	-160.9769	-48.4628	562.1269	63.4583	506.3243	-37.0494	198.6751	8.8347	470.6704	-0.0592	0.0182	-0.0073	-0.0462	0.0165	0.9585
46.9295	-48.3969	475.686	31.8703	-172.616	-56.7741	601.5765	62.015	449.7049	-30.5206	176.5326	3.3519	416.2484	-0.0592	0.0182	-0.0073	-0.0462	0.0165	0.9585
46.941	-53.4642	506.2046	35.5778	-183.6002	-62.8911	637.6646	57.9407	388.7855	-24.1746	152.6503	-0.86026	358.4901	-0.0592	0.0182	-0.0073	-0.0462	0.0165	0.9585
46.9525	-56.5261	535.8553	38.0666	-194.3759	-66.7483	671.8326	51.3098	326.1975	-18.3516	128.0666	-3.5388	299.8265	-0.0592	0.0182	-0.0073	-0.0462	0.0165	0.9585
46.964	-57.7047	565.3675	39.7359	-205.1699	-68.882	705.033	42.6752	264.9965	-13.3437	103.9923	-4.6541	242.9976	-0.0592	0.0182	-0.0073	-0.0462	0.0165	0.9585
46.9755	-57.1759	594.8053	40.9907	-215.9578	-69.9079	737.3608	32.9767	208.1391	-9.3289	81.6027	-4.4408	190.5828	-0.0592	0.0182	-0.0073	-0.0462	0.0165	0.9585
46.987	-55.3472	623.6963	42.4469	-226.4978	-70.7167	768.3659	23.3783	157.87	-6.2993	61.7962	-3.3792	144.4761	-0.0592	0.0182	-0.0073	-0.0462	0.0165	0.9585
46.9985	-52.5849	651.2976	44.5032	-236.4729	-71.9308	797.2423	14.8226	115.3852	-4.1444	45.0583	-1.9525	105.6373	-0.0592	0.0182	-0.0073	-0.0462	0.0165	0.9585
47.01	-49.2395	676.9694	47.2563	-245.6219	-73.7936	823.3723	7.8897	80.8965	-2.665	31.4859	-0.56858	74.1599	-0.0592	0.0182	-0.0073	-0.0462	0.0165	0.9585
47.0215	-45.5121	700.2224	50.6025	-253.7687	-76.2343	846.2667	2.7357	53.9117	-1.6823	20.8892	0.54969	49.5618	-0.0592	0.0182	-0.0073	-0.0462	0.0165	0.9585
47.033	-41.6088	720.7073	54.0504	-260.8084	-78.7549	865.6272	-0.71951	33.5446	-1.0363	12.9195	1.2984	31.0192	-0.0592	0.0182	-0.0073	-0.0462	0.0165	0.9585
47.0445	-37.6419	738.0206	57.2099	-266.6204	-80.9159	881.1007	-2.713	18.8212	-0.60493	7.1866	1.6656	17.6603	-0.0592	0.0182	-0.0073	-0.0462	0.0165	0.9585
47.056	-33.8031	751.7432	59.6263	-271.0737	-82.2527	892.3224	-3.512	8.7828	-0.3285	3.3065	1.7103	8.5888	-0.0592	0.0182	-0.0073	-0.0462	0.0165	0.9585
47.0675	-30.2091	761.5057	61.2548	-274.0336	-82.7166	898.9898	-3.4806	2.5579	-0.15905	0.92438	1.5349	2.9866	-0.0592	0.0182	-0.0073	-0.0462	0.0165	0.9585
47.079	-27.0009	767.1147	62.179	-275.4202	-82.4332	900.9997	-3.0123	-0.75843	-0.074424	-0.32218	1.2718	0.01194	-0.0592	0.0182	-0.0073	-0.0462	0.0165	0.9585
47.0905	-24.2722	768.675	62.6735	-275.2579	-81.7285	898.535	-2.3769	-2.0454	-0.048249	-0.78349	1.0025	-1.1276	-0.0592	0.0182	-0.0073	-0.0462	0.0165	0.9585
47.102	-22.0921	766.7763	62.9173	-273.7566	-80.8316	892.3162	-1.7398	-2.077	-0.059616	-0.76368	0.77117	-1.1349	-0.0592	0.0182	-0.0073	-0.0462	0.0165	0.9585
47.1135	-20.4174	762.4847	62.921	-271.3154	-79.7671	883.5415	-1.197	-1.4247	-0.076914	-0.48863	0.58615	-0.52497	-0.0592	0.0182	-0.0073	-0.0462	0.0165	0.9585
47.125	-19.1775	757.0576	62.6725	-268.41	-78.5154	873.6181	-0.77936	-0.50458	-0.096431	-0.11896	0.45391	0.3256	-0.0592	0.0182	-0.0073	-0.0462	0.0165	0.9585
47.1365	-18.2253	751.5459	62.1494	-265.4443	-77.0266	863.6968	-0.49611	0.44601	-0.10279	0.25258	0.3582	1.2212	-0.0592	0.0182	-0.0073	-0.0462	0.0165	0.9585
47.148	-17.4654	746.586	61.4697	-262.6628	-75.4014	854.4901	-0.31411	1.2895	-0.10458	0.5754	0.29377	2.0416	-0.0592	0.0182	-0.0073	-0.0462	0.0165	0.9585
47.1595	-16.8003	742.424	60.7141	-260.1711	-73.7067	846.2348	-0.21237	1.9739	-0.095611	0.83097	0.24408	2.7387	-0.0592	0.0182	-0.0073	-0.0462	0.0165	0.9585
47.171	-16.1385	739.0664	59.9911	-257.985	-72.0452	838.9203	-0.1467	2.4858	-0.079739	1.0177	0.19858	3.2829	-0.0592	0.0182	-0.0073	-0.0462	0.0165	0.9585
47.1825	-15.4103	736.3683	59.3487	-256.0653	-70.4656	832.3259	-0.11331	2.852	-0.061736	1.149	0.15885	3.6963	-0.0592	0.0182	-0.0073	-0.0462	0.0165	0.9585
47.194	-14.5491	734.1141	58.832	-254.3349	-69.0097	826.1484	-0.081274	3.1039	-0.049407	1.24	0.12862	3.9963	-0.0592	0.0182	-0.0073	-0.0462	0.0165	0.9585
47.2055	-13.4876	732.0311	58.4857	-252.6979	-67.7043	820.0216	-0.063727	3.2809	-0.050913	1.3081	0.12383	4.2192	-0.0592	0.0182	-0.0073	-0.0462	0.0165	0.9585
47.217	-12.1789	729.8513	58.3005	-251.064	-66.529	813.6177	-0.049959	3.406	-0.066732	1.3624	0.14453	4.3745	-0.0592	0.0182	-0.0073	-0.0462	0.0165	0.9585
47.2285	-10.5714	727.3787	58.2915	-249.3692	-65.4762	806.7216	-0.063556	3.4956	-0.086213	1.4073	0.18404	4.4773	-0.0592	0.0182	-0.0073	-0.0462	0.0165	0.9585
47.24	-8.6154	724.5654	58.4008	-247.5996	-64.4687	799.2659	-0.08909	3.5352	-0.10751	1.4353	0.23967	4.4859	-0.0592	0.0182	-0.0073	-0.0462	0.0165	0.9585
47.2515	-6.2746	721.4937	58.6324	-245.7847	-63.4891	791.326	-0.14474	3.4978	-0.12966	1.4307	0.31271	4.3727	-0.0592	0.0182	-0.0073	-0.0462	0.0165	0.9585
47.263	-3.4915	718.3987	58.9311	-244.0054	-62.463	783.1361	-0.22242	3.3171	-0.14892	1.366	0.39074	4.0695	-0.0592	0.0182	-0.0073	-0.0462	0.0165	0.9585
47.2745	-0.23366	715.5739	59.3092	-242.3579	-61.3794	774.9986	-0.34152	2.9168	-0.17515	1.2066	0.4826	3.5048	-0.0592	0.0182	-0.0073	-0.0462	0.0165	0.9585
47.286	3.5266	713.3344	59.7518	-240.9447	-60.2023	767.2446	-0.49493	2.1853	-0.20603	0.90733	0.58071	2.5252	-0.0592	0.0182	-0.0073	-0.0462	0.0165	0.9585
47.2975	7.8101	711.9515	60.3056	-239.849	-58.9574	760.1747	-0.66765	1.0119	-0.24705	0.42038	0.68398	0.99363	-0.0592	0.0182	-0.0073	-0.0462	0.0165	0.9585
47.309	12.5907	711.6942	61.0174	-239.151	-57.6853	754.0673	-0.81605	-0.70963	-0.28673	-0.2972	0.76714	-1.232	-0.0592	0.0182	-0.0073	-0.0462	0.0165	0.9585
47.3205	17.819	712.7919	61.9353	-238.9158	-56.4351	749.1629	-0.8857	-3.0077	-0.31129	-1.2568	0.79612	-4.1946	-0.0592	0.0182	-0.0073	-0.0462	0.0165	0.9585
47.332	23.4085	715.367	63.0869	-239.1776	-55.2485	745.5938	-0.77511	-5.819	-0.30305	-2.424	0.71097	-7.8232	-0.0592	0.0182	-0.0073	-0.0462	0.0165	0.9585
47.3435	29.2379	719.4005	64.4655	-239.929	-54.1466	743.3526	-0.38065	-8.8229	-0.24215	-3.6637	0.44099	-11.7042	-0.0592	0.0182	-0.0073	-0.0462	0.0165	0.9585
47.355	35.1731	724.7058	66.0602	-241.1133	-53.1558	742.2956	0.43675	-11.3935	-0.10243	-4.7116	-0.10594	-15.0372	-0.0592	0.0182	-0.0073	-0.0462	0.0165	0.9585
47.3665	41.0832	730.9492	67.7942	-242.6305	-52.2451	742.1447	1.8039	-12.4413	0.15309	-5.1179	-1.0323	-16.4084	-0.0592	0.0182	-0.0073	-0.0462	0.0165	0.9585
47.378	46.873	737.6145	69.5896	-244.3177	-51.3754	742.431	3.8381	-10.37	0.559	-4.2247	-2.4259	-13.7641	-0.0592	0.0182	-0.0073	-0.0462	0.0165	0.9585
47.3895	52.549	743.9256	71.3031	-245.9199	-50.4233	742.4357	6.5507	-3.0149	1.1523	-1.148	-4.3292	-4.3124	-0.0592	0.0182	-0.0073	-0.0462	0.0165	0.9585
47.401	58.1524	748.7511	72.7991	-247.0555	-49.2622	741.0888	9.8275	12.2507	1.9365	5.1804	-6.6774	15.351	-0.0592	0.0182	-0.0073	-0.0462	0.0165	0.9585
47.4125	63.7542	750.5682	73.9009	-247.2113	-47.7209	736.9603	13.2649	38.2455	2.8842	15.8997	-9.2333	48.8914	-0.0592	0.0182	-0.0073	-0.0462	0.0165	0.9585
47.424	69.3619	747.5428	74.4072	-245.7761	-45.6266	728.3439	16.1069	77.3863	3.8798	31.9739	-11.4944	99.4549	-0.0592	0.0182	-0.0073	-0.0462	0.0165	0.9585
47.4355	74.8351	737.7412	74.0467	-242.1226	-42.7948	713.4862	17.071	130.7275	4.7142	53.7961	-12.6276	168.461	-0.0592	0.0182	-0.0073	-0.0462	0.0165	0.9585
